# xmcd CD database generated by RipIT
#
# Track frame offsets:
# 150
# 24527
# 57682
# 83950
# 119355
# 146040
# 164905
# 188880
# 206145
# 227280
# 253057
# 269990
# 291405
# 316272
#
# Disc length: 4440 seconds
#
# Revision: 0
# Processed by: cddbd v1.5.2PL0 Copyright (c) Steve Scherf et al.
# Submitted via: RipIT 3.8.0 www.suwald.com/ripit/ripit.html on 2010-09-13 at 17:41
#
DISCID=e411560e
DTITLE=Eric Clapton - Pilgrim
DYEAR=1998
DGENRE=Rock
TTITLE0=My Father's Eyes
TTITLE1=River of Tears
TTITLE2=Pilgrim
TTITLE3=Broken Hearted
TTITLE4=One Chance
TTITLE5=Circus
TTITLE6=Going Down Slow
TTITLE7=Fall Like Rain
TTITLE8=Born in Time
TTITLE9=Sick and Tired
TTITLE10=Needs His Woman
TTITLE11=She's Gone
TTITLE12=You Were There
TTITLE13=Inside of Me
EXTD=
EXTT0=
EXTT1=
EXTT2=
EXTT3=
EXTT4=
EXTT5=
EXTT6=
EXTT7=
EXTT8=
EXTT9=
EXTT10=
EXTT11=
EXTT12=
EXTT13=
PLAYORDER=
